# xmcd
#
# Track frame offsets: 
#        150
#        17459
#        35501
#        53293
#        68655
#        80347
#        98858
#        115890
#        135338
#
# Disc length: 2031 seconds
#
# Revision: 1
# Processed by: cddbd v1.5.2PL0 Copyright (c) Steve Scherf et al.
# Submitted via: ExactAudioCopy v1.0b1
#
DISCID=6007ed09
DTITLE=Jo Dee Messina - Unmistakable Love
DYEAR=2010
DGENRE=Country
TTITLE0=Hard Life
TTITLE1=Always Have, Always Will
TTITLE2=Unmistakable
TTITLE3=Welcome To The Rest Of My Life
TTITLE4=Treat Me Like A Woman Today
TTITLE5=I Think About Us
TTITLE6=I'm Home
TTITLE7=Because You Love Me (Bonus Live Acoustic Track)
TTITLE8=Stand Beside Me (Bonus Live Acoustic Track)
EXTD=
EXTT0=
EXTT1=
EXTT2=
EXTT3=
EXTT4=
EXTT5=
EXTT6=
EXTT7=
EXTT8=
PLAYORDER=
